<?xml version="1.0" encoding="UTF-8"?>
<svg xmlns="http://www.w3.org/2000/svg" xmlns:xlink="http://www.w3.org/1999/xlink" viewBox="0 0 30 30" width="30px" height="30px">
<g id="surface6154660">
<path style=" stroke:none;fill-rule:nonzero;fill:rgb(100%,100%,100%);fill-opacity:1;" d="M 15 3.28125 C 8.527344 3.28125 3.28125 8.527344 3.28125 15 C 3.28125 21.472656 8.527344 26.71875 15 26.71875 C 21.472656 26.71875 26.71875 21.472656 26.71875 15 C 26.71875 8.527344 21.472656 3.28125 15 3.28125 Z M 15 3.28125 "/>
<path style=" stroke:none;fill-rule:nonzero;fill:rgb(0%,0%,0%);fill-opacity:1;" d="M 15 27.421875 C 8.15625 27.421875 2.578125 21.84375 2.578125 15 C 2.578125 8.15625 8.15625 2.578125 15 2.578125 C 21.84375 2.578125 27.421875 8.15625 27.421875 15 C 27.421875 21.84375 21.84375 27.421875 15 27.421875 Z M 15 3.984375 C 8.929688 3.984375 3.984375 8.929688 3.984375 15 C 3.984375 21.070312 8.929688 26.015625 15 26.015625 C 21.070312 26.015625 26.015625 21.070312 26.015625 15 C 26.015625 8.929688 21.070312 3.984375 15 3.984375 Z M 15 3.984375 "/>
<path style=" stroke:none;fill-rule:nonzero;fill:rgb(0%,0%,0%);fill-opacity:1;" d="M 20.273438 12.1875 L 9.726562 12.1875 C 9.328125 12.1875 9.023438 11.882812 9.023438 11.484375 C 9.023438 11.085938 9.328125 10.78125 9.726562 10.78125 L 20.273438 10.78125 C 20.671875 10.78125 20.976562 11.085938 20.976562 11.484375 C 20.976562 11.882812 20.671875 12.1875 20.273438 12.1875 Z M 20.273438 15.703125 L 9.726562 15.703125 C 9.328125 15.703125 9.023438 15.398438 9.023438 15 C 9.023438 14.601562 9.328125 14.296875 9.726562 14.296875 L 20.273438 14.296875 C 20.671875 14.296875 20.976562 14.601562 20.976562 15 C 20.976562 15.398438 20.671875 15.703125 20.273438 15.703125 Z M 20.273438 15.703125 "/>
<path style=" stroke:none;fill-rule:nonzero;fill:rgb(0%,0%,0%);fill-opacity:1;" d="M 20.273438 19.21875 L 9.726562 19.21875 C 9.328125 19.21875 9.023438 18.914062 9.023438 18.515625 C 9.023438 18.117188 9.328125 17.8125 9.726562 17.8125 L 20.273438 17.8125 C 20.671875 17.8125 20.976562 18.117188 20.976562 18.515625 C 20.976562 18.914062 20.671875 19.21875 20.273438 19.21875 Z M 20.273438 19.21875 "/>
</g>
</svg>
