<svg width="67" height="63" viewBox="0 0 67 63" fill="none" xmlns="http://www.w3.org/2000/svg">
<path d="M26.5943 7.01848L25.1197 8.50159L34.077 17.5221L35.5521 16.0388C36.4246 15.1593 36.7389 14.2562 36.5363 13.2412C36.3125 12.114 34.7001 10.5362 33.826 9.65733L33.0415 8.86723C30.9164 6.72597 30.2429 6.18399 29.37 6.02612C28.3632 5.82237 27.4666 6.13872 26.5943 7.01848ZM45.4881 29.0126C46.4419 29.9752 47.8111 29.9971 48.7013 29.1005C49.5912 28.2038 49.5696 26.8274 48.6154 25.8643L46.5946 23.8317L43.4676 26.9803L45.4881 29.0126ZM58.9516 37.3872L53.2154 43.1632C51.8392 44.5483 51.7539 46.126 53.0022 47.3836C54.2524 48.6421 55.8845 48.5785 57.239 47.2137L67 37.3872H58.9516ZM45.8546 53.3158H52.9343C51.631 52.9025 50.3747 52.1675 49.2681 51.0512C45.8795 47.6413 45.7502 42.8335 48.9848 39.5744L58.9377 29.5521H54.4115C54.1284 30.7661 53.5003 31.9182 52.5219 32.9055C51.3492 34.085 49.9824 34.7188 48.3755 34.8066C47.594 34.8505 47.0732 34.7632 45.9437 34.4577L42.8387 44.3166L38.4312 39.8781L41.4495 31.3305L40.2982 30.1714L34.546 35.9645L30.6245 32.0158L45.996 16.5205L45.7725 16.4805H41.5307C41.0883 17.3054 40.4905 18.099 39.731 18.865L33.8183 24.8184L17.8746 8.76193L23.7868 2.80954C25.4817 1.10214 27.3579 0.193182 29.3189 0.0801392H20.1627C19.6624 0.0801392 18.399 0.329309 17.8128 0.661884C17.7832 0.673352 16.4866 1.21593 15.7551 1.95212L7.35092 10.4638L7.35358 10.4674L7.34012 10.4812L9.66323 12.8206C7.22594 12.3526 4.34213 13.1663 2.22283 15.3005C-0.252176 17.7936 -0.494146 21.0177 0.680943 23.9132C1.047 24.773 1.39102 25.3223 2.36023 26.4021L4.05993 28.0888L8.81649 28.0845L10.3828 29.6715L7.99415 32.0767L7.99829 32.081L7.99784 32.0815L10.631 34.7227C11.9248 36.0125 13.621 36.6718 15.3168 36.5899L16.8318 36.5849L14.6442 38.772L14.6507 38.7799L38.7971 63.0934H47.7087L23.7168 38.9343L27.646 34.9792L45.8546 53.3158ZM21.5985 34.4076C19.538 34.4076 18.2613 33.5291 16.7834 32.1762L20.4563 28.4775C21.5977 29.5375 22.7409 29.5595 23.7702 28.5214C24.7786 27.5069 24.7786 26.2447 23.7485 25.2079C22.7409 24.1919 21.3297 24.1695 20.3227 25.1853L19.8071 25.7034L16.6271 22.4998L17.1419 21.9823C18.0606 21.0568 18.0825 19.8621 17.1419 18.9154C16.2683 18.0357 15.0379 18.0141 14.1858 18.8699C13.3127 19.7497 13.3352 20.8541 14.6276 22.2465L10.9552 25.9438C9.63971 24.5303 9.32586 24.0355 8.99101 23.2452C7.93854 20.6512 8.65468 17.7656 10.8716 15.5332C13.8502 12.533 17.9939 12.376 20.7471 15.1494C21.6432 16.0509 22.159 17.0668 22.2935 18.1479C22.3595 18.7115 22.3378 19.051 22.1807 19.9295C23.5466 19.7266 24.1065 19.7493 25.0691 20.0425C25.9206 20.3127 26.7484 20.832 27.5111 21.5987C30.4661 24.5763 30.2877 28.6343 27.0856 31.8601C25.451 33.5059 23.4802 34.4076 21.5985 34.4076Z" fill="#AA66CB"/>
</svg>
