<svg width="67" height="62" viewBox="0 0 67 62" fill="none" xmlns="http://www.w3.org/2000/svg">
<path d="M26.5943 6.89791L25.1197 8.35536L34.077 17.2198L35.5521 15.7622C36.4246 14.8979 36.7389 14.0104 36.5363 13.013C36.3125 11.9053 34.7001 10.3548 33.826 9.49111L33.0415 8.71467C30.9164 6.61045 30.2429 6.07785 29.37 5.92271C28.3632 5.72249 27.4666 6.03336 26.5943 6.89791ZM45.4881 28.5116C46.4419 29.4575 47.8111 29.479 48.7013 28.5979C49.5912 27.7167 49.5696 26.3642 48.6154 25.4177L46.5946 23.4203L43.4676 26.5144L45.4881 28.5116ZM58.9516 36.7412L53.2154 42.4174C51.8392 43.7785 51.7539 45.3289 53.0022 46.5648C54.2524 47.8015 55.8845 47.739 57.239 46.3978L67 36.7412H58.9516ZM45.8546 52.3943H52.9343C51.631 51.9881 50.3747 51.2658 49.2681 50.1689C45.8795 46.818 45.7502 42.0933 48.9848 38.8907L58.9377 29.0417H54.4115C54.1284 30.2347 53.5003 31.3669 52.5219 32.3371C51.3492 33.4962 49.9824 34.1191 48.3755 34.2053C47.594 34.2484 47.0732 34.1627 45.9437 33.8625L42.8387 43.5508L38.4312 39.1891L41.4495 30.7894L40.2982 29.6503L34.546 35.3432L30.6245 31.4628L45.996 16.2355L45.7725 16.1963H41.5307C41.0883 17.0068 40.4905 17.7868 39.731 18.5395L33.8183 24.3899L17.8746 8.61119L23.7868 2.76178C25.4817 1.08391 27.3579 0.190677 29.3189 0.0795898H20.1627C19.6624 0.0795898 18.399 0.32445 17.8128 0.651271C17.7832 0.662541 16.4866 1.19573 15.7551 1.91919L7.35092 10.2836L7.35358 10.2872L7.34012 10.3008L9.66323 12.5996C7.22594 12.1398 4.34213 12.9393 2.22283 15.0367C-0.252176 17.4866 -0.494146 20.655 0.680943 23.5004C1.047 24.3453 1.39102 24.8851 2.36023 25.9462L4.05993 27.6037L8.81649 27.5995L10.3828 29.1591L7.99415 31.5226L7.99829 31.5269L7.99784 31.5273L10.631 34.1229C11.9248 35.3903 13.621 36.0383 15.3168 35.9578L16.8318 35.9528L14.6442 38.1021L14.6507 38.1099L38.7971 62.0028H47.7087L23.7168 38.2616L27.646 34.3749L45.8546 52.3943ZM21.5985 33.8132C19.538 33.8132 18.2613 32.9499 16.7834 31.6204L20.4563 27.9857C21.5977 29.0274 22.7409 29.049 23.7702 28.0289C24.7786 27.0319 24.7786 25.7915 23.7485 24.7727C22.7409 23.7742 21.3297 23.7523 20.3227 24.7504L19.8071 25.2596L16.6271 22.1114L17.1419 21.6028C18.0606 20.6933 18.0825 19.5194 17.1419 18.589C16.2683 17.7246 15.0379 17.7034 14.1858 18.5443C13.3127 19.4089 13.3352 20.4941 14.6276 21.8625L10.9552 25.4958C9.63971 24.1067 9.32586 23.6205 8.99101 22.8439C7.93854 20.2948 8.65468 17.4591 10.8716 15.2653C13.8502 12.317 17.9939 12.1628 20.7471 14.8881C21.6432 15.774 22.159 16.7724 22.2935 17.8348C22.3595 18.3886 22.3378 18.7223 22.1807 19.5855C23.5466 19.3862 24.1065 19.4084 25.0691 19.6966C25.9206 19.9621 26.7484 20.4725 27.5111 21.2259C30.4661 24.152 30.2877 28.1398 27.0856 31.3098C25.451 32.9271 23.4802 33.8132 21.5985 33.8132Z" fill="white"/>
</svg>
